<?xml version="1.0" standalone="no"?>
<!DOCTYPE svg PUBLIC "-//W3C//DTD SVG 1.1//EN"
"http://www.w3.org/Graphics/SVG/1.1/DTD/svg11.dtd"><svg id="svg" version="1.1" width="500" height="300" xmlns="http://www.w3.org/2000/svg"><g stroke="none" fill="black" fill-rule="evenodd"><path d="M0.000 150.000 L 0.000 300.000 250.000 300.000 L 500.000 300.000 500.000 150.000 L 500.000 0.000 250.000 0.000 L 0.000 0.000 0.000 150.000 Z"/><path d="M410.538 18.360 C 414.959 22.960,419.642 28.924,420.946 31.612 C 422.249 34.300,423.728 37.335,424.232 38.355 C 424.910 39.729,424.829 40.012,423.918 39.449 C 422.690 38.691,422.960 42.220,424.542 47.614 C 424.977 49.097,423.446 48.130,419.407 44.371 C 416.241 41.425,413.444 39.223,413.190 39.477 C 412.935 39.731,413.737 42.285,414.970 45.153 C 416.204 48.020,418.244 54.444,419.504 59.428 C 421.556 67.548,422.228 68.875,425.963 72.189 C 428.255 74.224,431.789 76.452,433.816 77.142 L 437.500 78.396 433.725 79.045 C 431.648 79.401,427.623 79.326,424.779 78.876 C 421.935 78.426,419.484 78.183,419.332 78.334 C 419.180 78.486,420.695 81.043,422.697 84.017 C 426.870 90.213,437.253 111.740,436.770 113.191 C 436.592 113.724,433.364 110.506,429.596 106.041 C 425.828 101.575,422.569 98.097,422.355 98.311 C 422.141 98.526,423.524 101.288,425.428 104.450 C 428.722 109.920,436.464 130.869,435.535 131.798 C 435.293 132.040,434.294 131.436,433.314 130.457 C 430.674 127.817,422.417 124.298,414.632 122.493 C 410.855 121.618,407.592 121.075,407.380 121.287 C 406.760 121.907,416.266 132.589,419.000 134.343 C 423.511 137.237,418.191 136.325,411.160 132.999 C 407.673 131.350,404.684 130.000,404.517 130.000 C 404.349 130.000,404.659 131.913,405.205 134.250 C 406.366 139.221,405.494 156.906,404.015 158.385 C 403.328 159.072,403.000 158.955,403.000 158.025 C 403.000 155.868,395.877 142.000,394.770 142.000 C 394.170 142.000,394.048 143.441,394.461 145.642 C 395.249 149.847,394.132 164.000,393.012 164.000 C 392.597 164.000,391.944 160.393,391.559 155.984 C 391.174 151.576,390.472 148.209,389.997 148.502 C 388.824 149.227,386.881 158.881,386.072 168.000 L 385.407 175.500 383.004 170.750 C 381.683 168.138,380.269 166.000,379.864 166.000 C 378.793 166.000,379.991 172.739,382.041 178.250 C 383.013 180.863,383.506 183.000,383.137 183.000 C 382.129 183.000,372.000 173.965,372.000 173.066 C 372.000 172.638,373.619 170.167,375.598 167.575 C 377.577 164.983,378.903 162.569,378.544 162.210 C 378.185 161.852,377.504 162.220,377.030 163.029 C 376.013 164.765,374.552 166.848,363.923 181.716 C 355.884 192.962,350.358 198.593,346.358 199.615 C 344.264 200.150,344.247 200.302,345.611 206.331 C 346.378 209.724,347.458 213.541,348.011 214.814 C 349.139 217.412,348.648 217.253,343.406 213.321 C 341.704 212.044,340.086 211.000,339.810 211.000 C 339.534 211.000,339.228 213.588,339.129 216.750 C 338.955 222.342,334.713 238.573,332.944 240.418 C 332.436 240.949,332.329 236.970,332.692 231.010 C 333.162 223.294,333.028 220.865,332.161 221.401 C 331.522 221.795,331.000 222.813,331.000 223.663 C 331.000 225.894,324.455 237.896,321.000 242.000 L 318.054 245.500 317.999 242.500 C 317.945 239.578,317.884 239.616,315.638 244.000 L 313.332 248.500 318.035 252.017 C 323.474 256.085,325.919 258.872,332.428 268.420 C 336.568 274.492,344.000 288.015,344.000 289.475 C 344.000 289.764,334.938 290.000,323.862 290.000 L 303.724 290.000 304.407 283.250 C 304.783 279.538,305.971 270.995,307.046 264.267 C 308.120 257.538,309.000 250.415,309.000 248.438 C 309.000 245.278,309.983 243.853,317.109 236.671 C 324.114 229.612,330.253 221.878,334.708 214.500 C 336.937 210.807,346.429 193.506,346.503 193.000 C 346.856 190.580,351.169 183.863,354.356 180.770 C 356.519 178.672,357.974 176.640,357.590 176.256 C 357.206 175.872,356.490 176.207,356.000 177.000 C 354.505 179.419,353.922 177.523,355.111 174.111 C 356.912 168.946,355.467 169.488,353.467 174.728 C 348.646 187.357,331.183 219.025,325.364 225.691 C 323.535 227.786,322.030 229.793,322.019 230.151 C 322.009 230.509,319.262 233.174,315.915 236.073 C 311.083 240.260,309.646 241.052,308.931 239.922 C 307.603 237.824,307.809 234.287,309.293 233.718 C 313.330 232.169,331.976 202.440,332.010 197.500 C 332.021 195.850,332.610 192.834,333.320 190.798 C 334.029 188.761,334.402 185.386,334.149 183.298 L 333.688 179.500 332.469 184.500 C 331.799 187.250,330.517 191.525,329.620 194.000 C 328.723 196.475,327.543 200.344,326.997 202.598 C 325.979 206.801,319.210 216.553,311.020 225.612 C 308.479 228.424,305.853 232.546,305.186 234.773 C 304.190 238.097,302.038 240.447,293.156 247.914 C 284.400 255.274,281.884 258.006,279.952 262.253 C 278.639 265.139,276.756 268.581,275.768 269.903 C 272.323 274.511,275.030 273.265,282.239 266.925 C 286.232 263.412,289.725 260.304,290.000 260.017 C 290.275 259.730,293.875 256.798,298.000 253.500 C 302.125 250.202,305.813 247.067,306.196 246.531 C 307.898 244.149,307.753 247.661,305.498 263.411 C 304.172 272.671,302.987 282.441,302.865 285.123 L 302.643 290.000 296.920 290.000 L 291.198 290.000 292.485 283.750 C 294.420 274.349,296.000 265.533,296.000 264.131 C 296.000 261.218,294.210 264.308,293.627 268.228 C 293.278 270.578,292.253 276.438,291.349 281.250 L 289.707 290.000 247.527 290.000 L 205.347 290.000 202.457 277.399 C 200.868 270.469,199.391 265.326,199.177 265.970 C 198.853 266.942,201.865 281.978,203.640 288.250 C 204.101 289.881,202.534 290.000,180.547 290.000 L 156.959 290.000 159.120 285.750 C 162.250 279.596,168.778 270.197,173.449 265.121 C 177.156 261.093,184.798 255.407,185.469 256.178 C 186.007 256.796,188.005 278.542,188.003 283.750 C 188.001 286.638,188.439 289.000,188.975 289.000 C 189.511 289.000,189.758 287.763,189.523 286.250 C 189.288 284.738,188.851 278.944,188.551 273.376 C 188.252 267.807,187.105 258.870,186.003 253.516 C 183.634 242.001,183.687 242.699,185.250 243.613 C 185.938 244.015,185.600 243.315,184.500 242.058 L 182.500 239.772 182.200 245.386 C 182.035 248.474,181.473 251.000,180.950 251.000 C 180.428 251.000,179.996 250.213,179.990 249.250 C 179.978 246.981,175.586 237.561,173.022 234.300 C 171.925 232.906,171.253 231.399,171.530 230.952 C 171.806 230.504,171.505 229.812,170.860 229.414 C 169.984 228.872,169.828 230.689,170.242 236.595 L 170.797 244.500 165.436 233.675 C 160.554 223.818,160.018 223.103,159.434 225.675 C 157.436 234.471,157.346 234.415,156.733 224.000 C 156.393 218.225,155.415 211.531,154.558 209.124 C 153.701 206.718,153.000 203.722,153.000 202.468 C 153.000 200.686,152.566 200.301,151.016 200.706 C 147.724 201.567,144.749 200.257,139.594 195.675 C 136.132 192.599,134.928 190.900,135.504 189.907 C 135.953 189.133,135.946 188.840,135.488 189.256 C 135.030 189.671,133.390 188.096,131.844 185.756 C 129.233 181.804,124.155 175.807,116.250 167.339 C 114.463 165.424,113.000 163.016,113.000 161.988 C 113.000 158.418,111.410 159.171,108.675 164.036 C 105.113 170.372,103.661 171.213,105.556 165.841 L 107.052 161.602 101.498 167.739 C 98.444 171.114,94.235 175.230,92.145 176.885 L 88.346 179.894 90.146 174.562 C 92.457 167.717,94.373 155.412,93.378 153.803 C 92.956 153.119,91.858 148.946,90.939 144.530 L 89.269 136.500 87.230 141.000 C 86.109 143.475,84.760 146.625,84.233 148.000 C 83.421 150.115,83.161 149.397,82.543 143.332 C 82.142 139.389,82.111 135.227,82.474 134.082 C 83.250 131.637,82.435 131.513,77.872 133.380 C 69.619 136.758,69.329 136.655,73.335 131.767 C 76.320 128.123,77.000 126.479,77.001 122.897 C 77.002 120.479,78.127 113.859,79.501 108.186 C 80.876 102.514,81.986 97.564,81.969 97.186 C 81.952 96.809,80.829 98.300,79.474 100.500 C 76.163 105.876,76.232 102.450,79.567 95.867 C 80.979 93.081,81.962 90.629,81.751 90.418 C 81.540 90.207,79.822 90.500,77.934 91.068 C 74.063 92.234,58.331 91.345,57.445 89.911 C 57.135 89.410,57.598 89.000,58.474 89.000 C 60.953 89.000,69.540 84.342,73.545 80.826 C 75.535 79.079,78.956 74.915,81.147 71.574 L 85.130 65.500 80.585 70.500 C 78.086 73.250,76.032 74.961,76.021 74.302 C 75.984 72.151,81.159 56.650,84.051 50.250 L 86.875 44.000 84.187 43.999 C 80.866 43.998,70.035 38.971,68.000 36.485 C 66.619 34.798,66.673 34.698,68.680 35.215 C 69.879 35.523,72.354 35.423,74.180 34.990 L 77.500 34.205 73.500 34.087 C 67.393 33.907,65.952 32.385,71.149 31.603 C 78.541 30.492,86.945 25.101,91.716 18.412 C 95.891 12.556,96.962 10.288,94.967 11.520 C 94.400 11.871,92.561 12.552,90.883 13.034 C 88.178 13.809,87.979 13.731,89.131 12.343 C 89.846 11.481,91.207 10.489,92.155 10.138 C 93.104 9.787,163.319 9.611,248.190 9.748 L 402.500 9.995 410.538 18.360 Z"/><path d="M412.866 10.000 C 414.822 10.000,416.070 10.848,417.382 13.069 C 419.827 17.209,418.942 17.652,414.325 14.597 C 412.203 13.192,408.921 11.734,407.030 11.356 C 404.142 10.778,403.905 10.547,405.547 9.904 C 406.621 9.484,408.099 9.333,408.832 9.570 C 409.564 9.806,411.380 10.000,412.866 10.000 Z"/><path d="M178.000 97.883 C 178.000 98.369,179.013 99.038,180.250 99.370 C 183.430 100.222,184.000 100.149,184.000 98.893 C 184.000 98.284,183.339 98.040,182.532 98.349 C 181.725 98.659,180.798 98.482,180.473 97.956 C 179.730 96.754,178.000 96.703,178.000 97.883 Z"/><path d="M286.450 102.096 C 284.784 102.748,284.892 102.870,287.191 102.930 C 288.671 102.968,290.114 102.625,290.397 102.167 C 291.041 101.125,289.025 101.089,286.450 102.096 Z"/><path d="M275.000 104.000 C 275.000 104.550,276.152 105.000,277.559 105.000 C 279.010 105.000,279.851 104.567,279.500 104.000 C 279.160 103.450,278.009 103.000,276.941 103.000 C 275.873 103.000,275.000 103.450,275.000 104.000 Z"/><path d="M287.264 105.718 C 288.784 105.947,291.034 105.941,292.264 105.704 C 293.494 105.467,292.250 105.279,289.500 105.286 C 286.750 105.294,285.744 105.488,287.264 105.718 Z"/><path d="M191.500 115.000 C 191.160 115.550,191.359 116.000,191.941 116.000 C 192.523 116.000,193.000 115.550,193.000 115.000 C 193.000 114.450,192.802 114.000,192.559 114.000 C 192.316 114.000,191.840 114.450,191.500 115.000 Z"/><path d="M194.500 115.000 C 194.840 115.550,195.316 116.000,195.559 116.000 C 195.802 116.000,196.000 115.550,196.000 115.000 C 196.000 114.450,195.523 114.000,194.941 114.000 C 194.359 114.000,194.160 114.450,194.500 115.000 Z"/><path d="M197.500 115.000 C 197.840 115.550,198.316 116.000,198.559 116.000 C 198.802 116.000,199.000 115.550,199.000 115.000 C 199.000 114.450,198.523 114.000,197.941 114.000 C 197.359 114.000,197.160 114.450,197.500 115.000 Z"/><path d="M290.500 114.942 L 285.500 115.589 292.252 116.044 C 296.507 116.331,298.881 116.130,298.669 115.500 C 298.246 114.237,296.742 114.134,290.500 114.942 Z"/><path d="M178.112 116.081 C 175.698 116.555,173.448 117.243,173.112 117.610 C 172.271 118.528,183.260 117.226,186.157 116.066 C 188.387 115.172,188.356 115.129,185.500 115.173 C 183.850 115.198,180.525 115.607,178.112 116.081 Z"/><path d="M208.083 115.359 C 209.278 116.389,214.000 116.916,214.000 116.019 C 214.000 115.459,212.575 115.000,210.833 115.000 C 209.092 115.000,207.854 115.162,208.083 115.359 Z"/><path d="M216.813 115.683 C 217.534 115.972,218.397 115.936,218.729 115.604 C 219.061 115.272,218.471 115.036,217.417 115.079 C 216.252 115.127,216.015 115.364,216.813 115.683 Z"/><path d="M276.000 116.086 C 274.155 116.740,274.810 116.851,278.500 116.509 C 283.074 116.086,283.334 116.172,281.559 117.523 C 280.491 118.335,278.859 119.000,277.931 119.000 C 277.004 119.000,275.720 119.632,275.080 120.404 C 274.245 121.409,275.719 121.196,280.265 119.654 C 285.332 117.936,286.367 117.247,285.380 116.250 C 283.983 114.838,279.729 114.764,276.000 116.086 Z"/><path d="M307.000 116.000 C 307.000 116.550,308.125 117.000,309.500 117.000 C 310.875 117.000,312.000 116.550,312.000 116.000 C 312.000 115.450,310.875 115.000,309.500 115.000 C 308.125 115.000,307.000 115.450,307.000 116.000 Z"/><path d="M220.750 116.662 C 221.438 116.940,222.563 116.940,223.250 116.662 C 223.938 116.385,223.375 116.158,222.000 116.158 C 220.625 116.158,220.063 116.385,220.750 116.662 Z"/><path d="M315.500 116.515 C 318.067 117.705,329.041 118.623,328.707 117.620 C 328.513 117.039,325.237 116.449,321.427 116.308 C 317.617 116.167,314.950 116.261,315.500 116.515 Z"/><path d="M332.000 118.000 C 332.000 118.550,332.702 119.000,333.559 119.000 C 334.416 119.000,334.840 118.550,334.500 118.000 C 334.160 117.450,333.459 117.000,332.941 117.000 C 332.423 117.000,332.000 117.450,332.000 118.000 Z"/><path d="M170.079 118.571 C 170.036 119.160,167.647 119.750,164.772 119.881 C 161.897 120.012,159.251 120.594,158.893 121.173 C 158.474 121.851,158.074 121.740,157.771 120.863 C 157.512 120.113,156.814 121.743,156.221 124.485 C 155.146 129.451,155.680 130.969,158.500 130.969 C 159.050 130.969,158.829 130.545,158.008 130.026 C 155.620 128.516,157.981 127.062,164.574 125.982 C 173.491 124.522,175.000 124.674,175.000 127.035 C 175.000 133.019,182.730 138.360,191.500 138.436 C 198.387 138.496,201.943 136.538,204.501 131.277 C 205.966 128.265,205.934 127.790,204.014 124.027 C 202.134 120.343,201.620 120.000,197.980 120.000 C 195.791 120.000,193.663 119.986,193.250 119.969 C 192.838 119.952,192.347 121.185,192.160 122.709 L 191.821 125.479 190.407 122.117 L 188.994 118.756 180.016 119.185 C 174.257 119.460,170.880 119.235,170.598 118.557 C 170.293 117.825,170.134 117.829,170.079 118.571 Z"/><path d="M216.000 118.335 C 216.000 118.593,217.452 119.311,219.227 119.929 C 221.002 120.548,222.015 120.643,221.477 120.140 C 220.338 119.074,216.000 117.644,216.000 118.335 Z"/><path d="M290.500 120.706 C 285.000 121.393,279.600 122.426,278.500 123.002 C 276.871 123.853,277.196 123.962,280.250 123.587 C 284.972 123.006,285.000 123.555,280.346 125.500 C 278.337 126.339,276.971 127.305,277.311 127.645 C 277.651 127.985,277.480 129.104,276.930 130.131 C 275.745 132.345,276.594 132.447,280.000 130.500 C 283.621 128.430,284.019 128.647,282.834 132.046 C 281.962 134.546,282.085 135.436,283.518 137.020 C 284.478 138.081,286.104 139.216,287.132 139.542 C 289.450 140.278,289.591 142.000,287.333 142.000 C 284.901 142.000,286.303 143.006,289.557 143.596 C 291.099 143.876,292.769 144.358,293.270 144.667 C 294.980 145.724,315.595 144.914,321.415 143.561 C 324.610 142.818,328.411 141.369,329.862 140.341 C 333.121 138.031,336.719 136.338,340.000 135.571 C 344.609 134.492,346.320 132.465,345.282 129.313 C 344.565 127.137,343.241 126.122,339.428 124.830 C 336.234 123.748,335.312 123.132,336.809 123.080 C 338.079 123.036,338.862 122.586,338.549 122.079 C 338.236 121.572,334.383 121.158,329.987 121.158 C 325.592 121.158,320.646 120.862,318.998 120.499 C 316.347 119.917,315.993 120.111,315.937 122.171 L 315.873 124.500 314.969 122.250 C 314.261 120.488,313.266 120.000,310.385 120.000 L 306.707 120.000 307.300 127.750 L 307.893 135.500 305.451 130.000 C 304.107 126.975,302.444 123.365,301.754 121.978 L 300.500 119.456 290.500 120.706 Z"/><path d="M206.000 122.356 C 206.000 123.214,208.138 125.134,210.750 126.624 C 213.363 128.114,216.511 130.234,217.746 131.337 C 218.981 132.439,220.294 133.039,220.663 132.671 C 221.032 132.302,220.808 132.000,220.167 132.000 C 219.525 132.000,219.000 131.498,219.000 130.885 C 219.000 130.204,219.974 130.408,221.500 131.408 C 222.875 132.309,224.000 132.671,224.000 132.212 C 224.000 131.060,220.417 127.319,217.455 125.379 C 214.549 123.474,214.113 121.455,216.934 122.965 C 219.434 124.302,220.692 124.292,219.346 122.946 C 218.766 122.366,215.526 121.645,212.146 121.343 C 207.010 120.885,206.000 121.052,206.000 122.356 Z"/><path d="M321.524 131.000 C 327.151 131.000,329.551 132.351,325.739 133.373 C 324.507 133.703,321.588 133.979,319.250 133.986 C 316.317 133.996,315.000 134.426,315.000 135.375 C 315.000 137.233,309.754 138.166,306.299 136.923 C 303.246 135.825,299.359 131.276,300.539 130.182 C 300.943 129.807,301.483 130.088,301.739 130.806 C 302.715 133.546,306.471 136.000,309.689 136.000 C 312.333 136.000,313.000 135.597,313.000 134.000 C 313.000 132.900,313.450 132.000,314.000 132.000 C 314.550 132.000,315.036 131.213,315.079 130.250 C 315.126 129.205,315.361 129.003,315.662 129.750 C 315.978 130.532,318.174 131.000,321.524 131.000 Z"/><path d="M189.715 131.739 C 190.934 132.003,193.259 131.757,194.883 131.191 C 197.300 130.348,198.125 130.480,199.426 131.918 C 200.884 133.530,200.864 133.813,199.179 135.338 C 197.076 137.241,188.061 137.638,184.934 135.965 C 181.725 134.247,182.676 129.207,185.948 130.597 C 186.801 130.960,188.497 131.474,189.715 131.739 Z"/><path d="M207.776 140.557 C 207.470 140.864,203.457 141.508,198.859 141.988 L 190.500 142.862 199.758 142.622 C 205.280 142.480,209.498 141.902,210.208 141.192 C 211.131 140.269,211.053 140.000,209.867 140.000 C 209.023 140.000,208.083 140.251,207.776 140.557 Z"/><path d="M334.000 141.590 C 332.625 142.364,329.925 143.668,328.000 144.488 C 325.837 145.410,325.455 145.770,327.000 145.432 C 330.915 144.574,337.000 141.785,337.000 140.848 C 337.000 139.850,337.163 139.809,334.000 141.590 Z"/><path d="M369.253 154.703 C 368.650 156.435,366.996 158.612,365.578 159.541 C 364.160 160.470,363.000 161.659,363.000 162.183 C 363.000 162.707,364.381 162.153,366.069 160.951 C 369.113 158.783,371.396 154.687,370.708 152.625 C 370.512 152.036,369.857 152.971,369.253 154.703 Z"/><path d="M286.497 155.004 C 286.156 155.556,285.679 160.146,285.438 165.204 C 285.197 170.262,284.550 174.850,284.000 175.400 C 283.450 175.950,283.000 178.031,283.000 180.025 C 283.000 184.082,279.072 196.435,276.564 200.261 C 275.227 202.303,275.145 203.223,276.112 205.346 C 277.475 208.337,279.000 207.934,279.000 204.582 C 279.000 203.317,280.350 199.752,282.000 196.660 C 283.672 193.526,285.000 189.506,285.000 187.578 C 285.000 185.675,285.450 183.840,286.000 183.500 C 286.550 183.160,287.000 181.614,287.000 180.063 C 287.000 178.513,287.610 176.739,288.355 176.120 C 290.465 174.369,291.195 161.710,289.430 157.486 C 287.874 153.764,287.474 153.425,286.497 155.004 Z"/><path d="M321.000 155.000 C 321.000 155.550,321.450 156.000,322.000 156.000 C 322.550 156.000,323.000 155.550,323.000 155.000 C 323.000 154.450,322.550 154.000,322.000 154.000 C 321.450 154.000,321.000 154.450,321.000 155.000 Z"/><path d="M331.741 156.896 C 330.226 158.696,329.270 160.628,329.617 161.189 C 330.565 162.723,335.256 157.566,334.846 155.440 C 334.552 153.914,334.054 154.148,331.741 156.896 Z"/><path d="M137.141 158.000 C 137.141 158.825,137.527 160.400,138.000 161.500 C 138.542 162.761,138.859 162.945,138.859 162.000 C 138.859 161.175,138.473 159.600,138.000 158.500 C 137.458 157.239,137.141 157.055,137.141 158.000 Z"/><path d="M370.106 163.654 C 362.593 171.166,362.515 173.405,370.011 166.393 C 374.763 161.948,377.630 158.229,376.831 157.545 C 376.649 157.389,373.623 160.138,370.106 163.654 Z"/><path d="M129.000 160.429 C 129.000 160.665,131.025 162.225,133.500 163.895 C 135.975 165.566,138.000 166.557,138.000 166.099 C 138.000 165.641,136.210 164.081,134.021 162.633 C 130.131 160.059,129.000 159.562,129.000 160.429 Z"/><path d="M139.015 165.583 C 139.024 166.638,139.487 168.175,140.046 169.000 C 140.787 170.095,140.880 169.691,140.390 167.500 C 139.567 163.823,138.995 163.025,139.015 165.583 Z"/><path d="M123.545 170.250 C 124.608 173.768,129.035 177.937,134.500 180.566 C 137.250 181.889,141.724 185.115,144.441 187.736 C 147.159 190.356,149.072 191.676,148.691 190.668 C 148.311 189.661,148.000 188.397,148.000 187.859 C 148.000 187.322,147.561 187.153,147.025 187.485 C 146.489 187.816,144.795 186.683,143.262 184.968 C 141.729 183.252,137.781 180.370,134.487 178.565 C 130.415 176.332,127.860 174.118,126.500 171.643 C 124.278 167.602,122.490 166.759,123.545 170.250 Z"/><path d="M160.592 171.250 C 160.403 171.938,159.099 176.048,157.696 180.384 L 155.144 188.268 157.584 192.134 C 158.927 194.260,160.369 196.000,160.789 196.000 C 161.841 196.000,161.004 187.783,159.799 186.291 C 158.920 185.202,159.232 181.742,160.665 176.678 C 160.949 175.675,161.778 175.084,162.508 175.365 C 164.071 175.964,165.184 173.643,164.362 171.500 C 163.664 169.683,161.072 169.511,160.592 171.250 Z"/><path d="M319.779 174.750 C 319.227 180.958,320.226 183.669,321.161 178.500 C 322.174 172.904,322.153 170.000,321.101 170.000 C 320.606 170.000,320.011 172.138,319.779 174.750 Z"/><path d="M123.469 180.239 C 122.767 183.000,115.816 193.228,114.296 193.735 C 113.592 193.969,113.733 192.561,114.689 189.800 C 115.508 187.435,116.424 182.284,116.726 178.353 L 117.273 171.206 120.658 174.592 C 123.184 177.118,123.898 178.551,123.469 180.239 Z"/><path d="M363.750 173.218 C 360.459 174.353,359.989 176.444,363.250 175.446 C 366.712 174.387,368.347 173.329,367.378 172.773 C 366.895 172.496,365.263 172.697,363.750 173.218 Z"/><path d="M367.662 195.927 C 367.963 203.828,367.822 205.063,366.851 203.000 C 366.204 201.625,364.510 198.732,363.087 196.571 L 360.500 192.643 360.000 196.541 L 359.500 200.439 357.660 197.618 C 355.841 194.828,355.848 194.767,358.249 192.148 C 359.585 190.692,361.717 187.987,362.987 186.138 C 365.062 183.116,365.397 182.957,366.296 184.565 C 366.847 185.549,367.461 190.661,367.662 195.927 Z"/><path d="M184.250 194.491 C 180.487 196.126,180.370 196.623,182.956 199.988 L 184.868 202.477 185.801 199.988 C 187.277 196.049,188.162 192.997,187.817 193.039 C 187.643 193.061,186.038 193.714,184.250 194.491 Z"/><path d="M315.368 196.318 C 312.503 200.744,305.669 215.000,306.412 215.000 C 307.270 215.000,314.722 204.195,315.723 201.500 C 316.937 198.232,318.200 192.993,317.769 193.012 C 317.621 193.019,316.541 194.507,315.368 196.318 Z"/><path d="M163.015 196.750 C 163.024 197.163,163.467 198.175,164.000 199.000 C 164.784 200.213,164.972 200.069,164.985 198.250 C 164.993 197.013,164.550 196.000,164.000 196.000 C 163.450 196.000,163.007 196.338,163.015 196.750 Z"/><path d="M302.000 202.418 C 302.000 204.848,301.709 207.661,301.353 208.668 C 300.838 210.126,300.969 210.256,301.994 209.309 C 303.691 207.740,304.667 198.000,303.127 198.000 C 302.461 198.000,302.000 199.807,302.000 202.418 Z"/><path d="M182.000 204.059 C 182.000 204.641,182.450 204.840,183.000 204.500 C 183.550 204.160,184.000 203.684,184.000 203.441 C 184.000 203.198,183.550 203.000,183.000 203.000 C 182.450 203.000,182.000 203.477,182.000 204.059 Z"/><path d="M273.000 209.559 C 273.000 210.416,273.450 210.840,274.000 210.500 C 274.550 210.160,275.000 209.459,275.000 208.941 C 275.000 208.423,274.550 208.000,274.000 208.000 C 273.450 208.000,273.000 208.702,273.000 209.559 Z"/><path d="M179.250 209.662 C 177.252 210.468,177.803 215.476,180.234 218.615 C 185.791 225.790,185.857 225.802,185.857 219.656 C 185.857 215.601,185.313 213.397,183.856 211.544 C 181.810 208.942,181.424 208.785,179.250 209.662 Z"/><path d="M215.571 216.571 C 213.624 218.519,213.623 218.938,215.567 222.834 C 217.199 226.106,216.826 228.000,214.548 228.000 C 213.814 228.000,212.930 228.739,212.583 229.643 C 211.867 231.509,211.757 231.342,214.750 232.900 C 215.988 233.544,217.000 234.730,217.000 235.535 C 217.000 237.608,219.410 237.355,224.290 234.770 C 226.605 233.544,230.075 232.016,232.000 231.375 C 235.410 230.240,235.427 230.207,232.691 230.105 C 230.879 230.037,230.129 229.600,230.579 228.873 C 231.069 228.079,234.368 227.953,241.742 228.447 C 253.309 229.221,253.005 229.510,247.750 222.752 C 245.357 219.675,244.392 219.115,242.362 219.624 C 240.593 220.068,239.221 219.617,237.543 218.040 C 234.766 215.432,227.683 214.188,225.573 215.939 C 224.520 216.814,223.586 216.849,222.130 216.069 C 219.354 214.584,217.410 214.733,215.571 216.571 Z"/><path d="M299.667 227.667 C 299.300 228.033,299.000 228.798,299.000 229.367 C 299.000 229.993,299.466 229.934,300.183 229.217 C 300.834 228.566,301.134 227.801,300.850 227.517 C 300.566 227.233,300.033 227.300,299.667 227.667 Z"/><path d="M274.336 229.567 C 274.005 230.429,274.244 231.644,274.867 232.267 C 276.577 233.977,276.234 235.000,273.949 235.000 C 272.821 235.000,270.351 236.688,268.461 238.750 C 264.844 242.696,263.743 242.967,251.000 243.044 C 248.525 243.059,245.488 243.289,244.250 243.555 C 241.700 244.103,241.174 246.000,243.571 246.000 C 246.727 246.000,250.305 252.049,249.818 256.560 C 249.540 259.132,249.852 259.540,252.314 259.823 C 254.277 260.048,255.888 259.385,257.643 257.630 C 259.026 256.247,263.610 253.402,267.829 251.308 C 276.262 247.122,276.962 246.511,276.985 243.323 C 276.994 242.050,278.502 239.908,280.616 238.165 L 284.232 235.184 281.366 231.592 C 278.345 227.806,275.343 226.942,274.336 229.567 Z"/><path d="M295.887 236.500 C 295.551 237.050,294.960 238.850,294.572 240.500 C 293.920 243.280,293.989 243.381,295.521 241.878 C 296.429 240.986,297.021 239.186,296.835 237.878 C 296.649 236.570,296.223 235.950,295.887 236.500 Z"/><path d="M212.000 253.566 C 212.000 256.034,213.929 259.000,215.535 259.000 C 217.476 259.000,217.408 255.551,215.429 253.571 C 213.423 251.566,212.000 251.564,212.000 253.566 Z"/><path d="M267.277 277.766 C 264.404 279.757,262.193 281.527,262.364 281.698 C 262.927 282.260,268.443 279.106,271.406 276.529 C 275.599 272.880,273.357 273.551,267.277 277.766 Z"/><path d="M254.500 284.000 C 252.870 284.701,252.812 284.872,254.191 284.930 C 255.121 284.968,256.160 284.550,256.500 284.000 C 257.211 282.850,257.176 282.850,254.500 284.000 Z"/></g></svg>