<?xml version="1.0" standalone="no"?>
<!DOCTYPE svg PUBLIC "-//W3C//DTD SVG 1.1//EN"
"http://www.w3.org/Graphics/SVG/1.1/DTD/svg11.dtd"><svg id="svg" version="1.1" width="500" height="313" xmlns="http://www.w3.org/2000/svg"><g stroke="none" fill="black" fill-rule="evenodd"><path d="M107.557 2.223 C 105.815 4.710,105.462 9.000,107.000 9.000 C 108.912 9.000,112.000 4.985,112.000 2.500 C 112.000 -0.640,109.664 -0.786,107.557 2.223 Z"/><path d="M438.122 16.278 C 436.374 18.026,436.802 23.533,438.885 26.107 C 440.502 28.103,441.001 28.244,442.385 27.095 C 444.183 25.603,444.521 20.842,443.028 18.052 C 441.757 15.677,439.529 14.871,438.122 16.278 Z"/><path d="M299.680 32.510 C 300.007 38.554,300.438 43.688,300.638 43.917 C 301.483 44.889,300.884 24.365,300.027 23.010 C 299.424 22.056,299.299 25.476,299.680 32.510 Z"/><path d="M316.787 27.705 C 316.509 28.769,316.813 34.333,317.463 40.069 C 318.540 49.590,318.710 50.132,319.405 46.280 C 320.669 39.270,318.251 22.108,316.787 27.705 Z"/><path d="M47.250 31.731 C 44.958 32.530,45.903 35.000,48.500 35.000 C 49.970 35.000,51.000 34.426,51.000 33.607 C 51.000 32.026,49.112 31.081,47.250 31.731 Z"/><path d="M297.195 34.500 C 297.215 36.150,297.439 36.704,297.693 35.731 C 297.947 34.758,297.930 33.408,297.656 32.731 C 297.382 32.054,297.175 32.850,297.195 34.500 Z"/><path d="M211.503 42.500 C 211.764 44.700,212.028 47.850,212.089 49.500 C 212.197 52.446,212.214 52.455,213.000 50.000 C 213.440 48.625,213.784 45.475,213.764 43.000 C 213.741 40.171,213.536 39.428,213.211 41.000 L 212.695 43.500 211.861 41.000 C 211.232 39.110,211.144 39.476,211.503 42.500 Z"/><path d="M205.136 52.750 C 205.006 57.751,204.870 58.005,202.250 58.102 L 199.500 58.204 202.636 59.214 C 205.453 60.121,205.848 60.747,206.516 65.362 C 208.022 75.761,208.105 75.065,205.432 74.394 C 203.286 73.855,202.995 74.120,202.960 76.642 L 202.920 79.500 201.428 76.750 C 199.763 73.682,198.826 73.511,192.443 75.119 C 188.944 76.000,187.994 76.690,187.970 78.369 C 187.941 80.339,187.860 80.364,186.889 78.695 C 186.006 77.176,185.582 77.097,184.227 78.195 C 183.341 78.913,182.904 79.018,183.257 78.428 C 183.609 77.839,183.015 76.601,181.937 75.678 C 179.372 73.482,179.224 73.537,179.556 76.563 C 179.721 78.065,179.251 79.350,178.419 79.670 C 176.325 80.473,176.726 83.631,179.966 91.845 C 181.560 95.885,182.593 99.897,182.262 100.760 C 181.865 101.795,182.058 102.082,182.830 101.605 C 183.474 101.207,184.014 101.246,184.032 101.691 C 184.102 103.486,186.975 106.179,189.168 106.505 C 195.941 107.514,202.289 107.908,199.500 107.147 C 190.866 104.791,185.206 99.708,183.470 92.750 C 182.776 89.971,184.284 88.804,185.407 91.250 C 185.723 91.938,185.727 91.476,185.415 90.225 C 185.032 88.685,185.263 88.039,186.129 88.225 C 186.833 88.376,187.486 87.938,187.580 87.250 C 187.673 86.563,187.806 85.550,187.875 85.000 C 187.944 84.450,188.388 84.000,188.861 84.000 C 189.335 84.000,189.531 85.013,189.297 86.250 C 189.062 87.488,189.321 89.625,189.872 91.000 C 190.795 93.305,190.878 93.333,190.937 91.357 C 191.051 87.499,196.871 86.731,199.326 90.250 L 200.895 92.500 200.948 90.357 C 201.011 87.753,203.713 86.517,205.713 88.177 C 206.684 88.982,206.982 90.411,206.605 92.444 L 206.037 95.500 207.992 93.172 C 210.144 90.609,212.719 90.600,214.324 93.149 C 215.784 95.468,212.773 99.779,208.422 101.597 C 204.524 103.226,203.862 104.155,207.305 103.164 C 211.325 102.006,214.772 98.494,216.040 94.262 C 217.493 89.412,220.227 88.202,223.288 91.054 C 226.165 93.734,226.355 92.994,224.124 87.790 C 222.972 85.102,220.349 81.781,217.599 79.528 L 213.000 75.759 213.000 69.261 C 213.000 61.304,209.350 49.465,207.397 51.086 C 206.478 51.848,206.039 51.515,205.713 49.808 C 205.471 48.539,205.211 49.863,205.136 52.750 M191.423 82.125 C 191.125 82.606,190.009 83.000,188.941 83.000 C 187.873 83.000,187.000 82.606,187.000 82.125 C 187.000 81.644,188.117 81.250,189.482 81.250 C 190.847 81.250,191.720 81.644,191.423 82.125 M220.000 88.035 C 220.000 89.752,218.102 89.058,216.959 86.924 C 215.943 85.025,216.025 84.943,217.924 85.959 C 219.066 86.570,220.000 87.505,220.000 88.035 Z"/><path d="M286.136 60.340 C 283.071 68.324,275.868 83.325,274.721 84.112 C 274.231 84.448,273.877 85.016,273.935 85.372 C 274.311 87.680,263.852 100.209,262.614 98.935 C 262.381 98.696,263.723 95.353,265.595 91.507 C 267.468 87.661,268.964 83.836,268.921 83.007 C 268.867 81.981,268.681 81.899,268.338 82.750 C 268.060 83.438,267.228 84.000,266.489 84.000 C 265.749 84.000,264.214 86.485,263.078 89.521 C 260.581 96.194,256.194 105.000,255.367 105.000 C 255.037 105.000,255.007 104.213,255.301 103.250 C 258.072 94.169,259.986 86.717,259.921 85.263 C 259.874 84.216,259.637 84.008,259.338 84.750 C 259.060 85.438,258.377 86.000,257.818 86.000 C 257.167 86.000,257.053 83.849,257.500 80.000 C 257.956 76.069,257.838 74.000,257.157 74.000 C 255.398 74.000,254.680 76.119,254.857 80.791 C 255.002 84.631,254.817 85.093,253.552 84.043 C 252.741 83.370,251.805 81.960,251.471 80.909 C 251.137 79.858,249.926 78.496,248.779 77.882 C 246.767 76.805,246.714 76.938,247.276 81.633 C 247.596 84.310,248.177 87.400,248.567 88.500 C 248.958 89.600,246.492 86.563,243.088 81.750 C 239.684 76.938,236.667 73.000,236.382 73.000 C 236.098 73.000,236.182 74.013,236.570 75.250 C 236.957 76.488,237.483 78.175,237.737 79.000 C 237.991 79.825,236.743 78.349,234.962 75.721 C 233.182 73.092,231.490 71.177,231.202 71.465 C 230.914 71.752,231.343 72.778,232.154 73.744 C 234.093 76.051,241.960 93.322,242.142 95.671 C 242.220 96.677,242.557 95.700,242.892 93.500 L 243.500 89.500 245.698 93.034 C 246.907 94.978,249.044 97.903,250.447 99.534 C 253.654 103.264,253.627 103.752,249.984 107.886 C 248.343 109.748,247.000 111.337,247.000 111.419 C 247.000 111.500,248.141 111.516,249.536 111.455 C 251.135 111.385,254.642 109.042,259.036 105.109 L 266.000 98.873 266.000 101.905 C 266.000 104.189,266.370 104.795,267.500 104.362 C 268.377 104.025,269.006 104.350,269.015 105.143 C 269.042 107.516,270.837 103.953,272.547 98.131 C 273.415 95.178,275.300 90.903,276.736 88.631 C 278.172 86.359,280.684 81.575,282.319 78.000 C 286.581 68.680,286.841 72.356,282.618 82.231 C 279.726 88.995,279.490 90.001,281.322 87.758 C 286.613 81.282,291.916 60.209,289.380 55.734 C 288.713 54.557,287.928 55.672,286.136 60.340 Z"/><path d="M305.749 57.750 C 304.942 59.813,303.459 64.200,302.453 67.500 C 301.448 70.800,300.147 73.831,299.562 74.235 C 298.868 74.715,298.954 74.975,299.810 74.985 C 301.785 75.008,300.556 80.779,297.997 83.504 C 296.818 84.758,296.309 85.946,296.865 86.142 C 298.400 86.685,294.828 96.227,291.697 99.948 C 290.214 101.711,289.000 103.480,289.000 103.880 C 289.000 104.936,306.610 108.919,312.656 109.230 C 315.492 109.376,317.582 109.867,317.301 110.322 C 317.020 110.776,317.807 112.230,319.049 113.552 C 321.137 115.775,321.344 117.108,321.797 131.207 C 322.156 142.389,322.542 145.797,323.242 143.979 C 323.769 142.614,323.983 135.796,323.718 128.811 C 323.285 117.378,323.424 115.922,325.119 114.103 C 326.154 112.992,327.000 111.667,327.000 111.157 C 327.000 110.647,328.180 109.457,329.623 108.511 C 331.066 107.566,331.939 107.289,331.564 107.896 C 331.189 108.503,331.343 109.000,331.906 109.000 C 332.469 109.000,333.384 108.151,333.939 107.114 C 334.993 105.145,340.202 101.705,343.916 100.527 C 345.866 99.908,346.017 100.118,345.456 102.670 C 345.114 104.227,343.940 107.681,342.848 110.347 C 339.913 117.507,341.332 117.130,344.832 109.820 C 348.781 101.572,349.545 98.868,347.825 99.225 C 346.484 99.503,346.303 98.694,346.100 91.500 L 345.987 87.500 344.098 90.366 C 342.350 93.016,342.161 93.083,341.579 91.248 C 341.232 90.157,341.411 88.050,341.975 86.567 C 343.258 83.191,343.270 82.036,342.000 84.000 C 341.264 85.138,341.027 84.716,341.015 82.250 C 340.998 78.561,338.547 77.701,337.495 81.015 C 336.679 83.586,335.000 82.605,335.000 79.558 C 335.000 77.993,334.265 77.036,332.750 76.630 C 327.324 75.176,326.329 75.756,323.960 81.750 C 320.695 90.013,320.193 90.038,320.774 81.909 C 321.244 75.350,321.131 74.736,319.564 75.337 C 318.614 75.702,317.008 76.000,315.995 76.000 C 314.982 76.000,312.679 77.238,310.877 78.750 C 308.532 80.719,307.791 81.003,308.269 79.750 C 309.030 77.756,308.218 77.586,304.565 78.975 C 301.632 80.090,301.021 78.670,303.750 77.080 C 304.713 76.519,304.977 76.047,304.339 76.030 C 302.836 75.991,305.527 63.920,307.288 62.801 C 307.955 62.377,309.711 62.024,311.191 62.015 C 312.671 62.007,314.160 61.550,314.500 61.000 C 314.874 60.395,313.484 60.000,310.980 60.000 C 306.902 60.000,306.851 59.956,307.500 57.000 C 308.410 52.858,307.514 53.242,305.749 57.750 M308.000 96.000 C 308.000 96.550,306.848 97.000,305.441 97.000 C 303.990 97.000,303.149 96.567,303.500 96.000 C 303.840 95.450,304.991 95.000,306.059 95.000 C 307.127 95.000,308.000 95.450,308.000 96.000 Z"/><path d="M301.142 61.809 C 300.396 64.729,300.013 67.347,300.293 67.626 C 301.115 68.448,303.173 61.240,302.822 58.767 C 302.604 57.235,302.060 58.221,301.142 61.809 Z"/><path d="M214.250 60.250 C 214.880 62.142,218.000 62.411,218.000 60.573 C 218.000 59.646,217.145 59.000,215.917 59.000 C 214.695 59.000,214.005 59.517,214.250 60.250 Z"/><path d="M297.500 64.000 C 297.160 64.550,297.332 65.000,297.882 65.000 C 298.432 65.000,299.160 64.550,299.500 64.000 C 299.840 63.450,299.668 63.000,299.118 63.000 C 298.568 63.000,297.840 63.450,297.500 64.000 Z"/><path d="M319.000 68.427 C 319.000 71.802,318.584 72.962,317.250 73.311 C 316.068 73.619,316.312 73.803,318.000 73.876 C 320.325 73.977,320.513 73.634,320.680 68.992 C 320.780 66.246,320.442 64.000,319.930 64.000 C 319.419 64.000,319.000 65.992,319.000 68.427 Z"/><path d="M178.079 67.583 C 178.127 68.748,178.364 68.985,178.683 68.188 C 178.972 67.466,178.936 66.603,178.604 66.271 C 178.272 65.939,178.036 66.529,178.079 67.583 Z"/><path d="M2.180 71.250 C 2.356 72.488,2.950 73.500,3.500 73.500 C 4.050 73.500,4.644 72.488,4.820 71.250 C 5.039 69.702,4.628 69.000,3.500 69.000 C 2.372 69.000,1.961 69.702,2.180 71.250 Z"/><path d="M218.000 72.000 C 218.000 72.550,218.477 73.000,219.059 73.000 C 219.641 73.000,219.840 72.550,219.500 72.000 C 219.160 71.450,218.684 71.000,218.441 71.000 C 218.198 71.000,218.000 71.450,218.000 72.000 Z"/><path d="M328.818 74.218 C 329.351 74.751,330.623 75.011,331.644 74.794 C 333.019 74.503,332.767 74.251,330.674 73.825 C 328.849 73.452,328.192 73.592,328.818 74.218 Z"/><path d="M169.359 82.871 C 169.954 88.252,172.034 90.983,171.547 85.744 C 171.367 83.802,170.692 81.378,170.047 80.357 C 169.077 78.820,168.959 79.252,169.359 82.871 Z"/><path d="M369.000 83.471 C 369.000 85.921,364.150 96.113,359.812 102.780 C 357.565 106.234,356.047 109.380,356.438 109.771 C 357.196 110.529,357.668 109.879,362.738 101.104 C 366.770 94.126,366.814 94.738,362.966 104.267 C 361.298 108.399,359.785 113.292,359.604 115.140 C 359.423 116.988,358.928 119.400,358.503 120.500 L 357.731 122.500 359.333 120.500 C 360.214 119.400,361.684 116.250,362.600 113.500 C 363.516 110.750,364.694 107.957,365.218 107.294 C 365.743 106.630,365.839 105.548,365.432 104.889 C 364.975 104.151,365.115 103.953,365.795 104.373 C 367.651 105.520,369.112 101.249,368.927 95.220 C 368.831 92.074,369.083 87.813,369.487 85.750 C 369.892 83.688,369.948 82.000,369.611 82.000 C 369.275 82.000,369.000 82.662,369.000 83.471 M367.500 101.000 C 367.840 101.550,367.641 102.000,367.059 102.000 C 366.477 102.000,366.000 101.550,366.000 101.000 C 366.000 100.450,366.198 100.000,366.441 100.000 C 366.684 100.000,367.160 100.450,367.500 101.000 Z"/><path d="M203.583 89.866 C 203.152 90.563,203.070 91.403,203.400 91.733 C 204.295 92.628,205.271 91.312,204.787 89.862 C 204.449 88.846,204.213 88.846,203.583 89.866 Z"/><path d="M169.029 90.500 C 169.055 95.009,172.296 109.661,174.013 113.025 C 175.187 115.326,175.664 116.910,175.074 116.546 C 173.280 115.437,173.864 117.038,176.463 120.356 C 183.589 129.450,185.172 129.303,180.425 119.987 C 178.459 116.130,176.436 113.231,175.928 113.544 C 175.392 113.876,175.413 113.044,175.978 111.559 C 177.409 107.794,175.504 99.406,172.000 94.049 C 170.363 91.547,169.026 89.950,169.029 90.500 Z"/><path d="M174.531 91.293 C 174.103 92.279,174.034 93.367,174.376 93.710 C 175.392 94.725,176.211 93.299,175.743 91.328 C 175.329 89.581,175.275 89.580,174.531 91.293 Z"/><path d="M202.000 93.941 C 202.000 94.459,202.445 95.157,202.989 95.493 C 203.555 95.843,203.723 95.442,203.382 94.552 C 202.717 92.820,202.000 92.503,202.000 93.941 Z"/><path d="M373.663 99.000 C 373.239 101.475,372.643 104.850,372.337 106.500 L 371.781 109.500 374.390 105.706 C 377.124 101.730,377.633 100.000,376.066 100.000 C 375.553 100.000,374.975 98.763,374.783 97.250 C 374.498 95.008,374.290 95.332,373.663 99.000 Z"/><path d="M154.582 98.500 C 155.569 103.564,155.957 104.230,157.560 103.615 C 158.409 103.289,158.843 103.445,158.524 103.961 C 158.017 104.781,160.873 107.000,162.434 107.000 C 163.776 107.000,162.746 104.183,159.876 100.000 L 156.788 95.500 157.424 99.000 L 158.061 102.500 156.029 99.000 L 153.998 95.500 154.582 98.500 Z"/><path d="M228.000 100.450 C 228.000 101.798,227.213 103.401,226.250 104.013 C 224.832 104.915,225.070 104.995,227.500 104.438 C 229.150 104.059,231.063 103.730,231.750 103.708 C 233.392 103.654,233.327 102.912,231.443 100.223 C 229.402 97.309,228.000 97.401,228.000 100.450 Z"/><path d="M164.150 102.000 C 164.725 103.650,165.571 105.000,166.030 105.000 C 166.490 105.000,167.162 105.934,167.524 107.075 C 167.886 108.217,168.406 108.927,168.679 108.654 C 169.154 108.179,164.189 99.000,163.457 99.000 C 163.263 99.000,163.575 100.350,164.150 102.000 Z"/><path d="M142.000 101.000 C 142.000 101.550,142.477 102.000,143.059 102.000 C 143.641 102.000,143.840 101.550,143.500 101.000 C 143.160 100.450,142.684 100.000,142.441 100.000 C 142.198 100.000,142.000 100.450,142.000 101.000 Z"/><path d="M56.000 103.000 C 56.000 104.506,56.522 105.046,57.750 104.810 C 58.713 104.624,59.500 103.810,59.500 103.000 C 59.500 102.190,58.713 101.376,57.750 101.190 C 56.522 100.954,56.000 101.494,56.000 103.000 Z"/><path d="M455.352 103.003 C 452.186 104.267,451.744 105.605,453.424 108.853 C 455.961 113.759,465.000 114.266,465.000 109.502 C 465.000 104.869,459.671 101.279,455.352 103.003 Z"/><path d="M156.610 107.500 C 157.433 111.177,158.005 111.975,157.985 109.417 C 157.976 108.363,157.513 106.825,156.954 106.000 C 156.213 104.905,156.120 105.309,156.610 107.500 Z"/><path d="M156.000 114.035 C 154.625 115.130,154.241 115.765,155.148 115.446 C 157.060 114.771,162.573 121.263,161.527 122.957 C 161.172 123.531,161.359 124.000,161.941 124.000 C 164.121 124.000,164.530 124.308,165.756 126.872 L 167.011 129.500 166.460 126.646 C 165.721 122.815,163.034 118.861,161.721 119.673 C 161.056 120.083,160.900 119.702,161.303 118.652 C 161.933 117.011,160.253 111.978,159.089 112.022 C 158.765 112.034,157.375 112.940,156.000 114.035 Z"/><path d="M170.000 113.393 C 170.000 113.609,170.698 114.054,171.552 114.382 C 172.442 114.723,172.843 114.555,172.493 113.989 C 171.906 113.038,170.000 112.583,170.000 113.393 Z"/><path d="M377.073 122.635 C 375.933 124.084,374.966 125.547,374.923 125.885 C 374.561 128.798,373.965 130.404,373.031 130.981 C 372.425 131.355,371.702 133.425,371.425 135.581 C 370.982 139.034,371.075 139.269,372.211 137.559 C 372.920 136.491,374.550 134.521,375.833 133.180 C 377.167 131.787,377.965 129.973,377.696 128.946 C 377.402 127.821,377.678 127.323,378.435 127.613 C 379.100 127.869,380.164 126.935,380.800 125.539 C 382.099 122.689,380.664 122.031,379.080 124.750 C 377.712 127.099,377.670 124.485,379.035 121.934 C 380.507 119.184,379.506 119.541,377.073 122.635 Z"/><path d="M103.000 123.310 C 103.000 124.122,103.708 125.058,104.573 125.390 C 105.669 125.810,106.048 125.489,105.823 124.329 C 105.412 122.213,103.000 121.341,103.000 123.310 Z"/><path d="M357.079 124.583 C 357.127 125.748,357.364 125.985,357.683 125.188 C 357.972 124.466,357.936 123.603,357.604 123.271 C 357.272 122.939,357.036 123.529,357.079 124.583 Z"/><path d="M356.079 128.583 C 356.127 129.748,356.364 129.985,356.683 129.188 C 356.972 128.466,356.936 127.603,356.604 127.271 C 356.272 126.939,356.036 127.529,356.079 128.583 Z"/><path d="M355.079 132.583 C 355.127 133.748,355.364 133.985,355.683 133.188 C 355.972 132.466,355.936 131.603,355.604 131.271 C 355.272 130.939,355.036 131.529,355.079 132.583 Z"/><path d="M152.000 135.000 C 152.000 135.550,152.477 136.000,153.059 136.000 C 153.641 136.000,153.840 135.550,153.500 135.000 C 153.160 134.450,152.684 134.000,152.441 134.000 C 152.198 134.000,152.000 134.450,152.000 135.000 Z"/><path d="M352.645 139.331 C 351.626 141.624,349.725 146.200,348.419 149.500 C 346.274 154.921,346.235 155.272,348.022 153.139 C 349.110 151.841,350.000 151.108,350.000 151.512 C 350.000 151.915,350.696 151.667,351.547 150.961 C 352.712 149.994,352.795 149.491,351.881 148.927 C 350.965 148.360,351.218 146.666,352.918 142.006 C 355.522 134.864,355.354 133.228,352.645 139.331 Z"/><path d="M403.616 138.527 C 401.586 140.557,401.539 142.886,403.513 143.643 C 405.613 144.449,408.158 142.087,407.798 139.666 C 407.404 137.012,405.618 136.525,403.616 138.527 Z"/><path d="M163.143 146.250 C 166.640 149.688,169.881 152.334,170.347 152.131 C 171.262 151.732,159.060 140.125,157.643 140.047 C 157.172 140.021,159.647 142.813,163.143 146.250 Z"/><path d="M346.727 166.936 C 346.376 168.276,346.642 168.691,347.613 168.318 C 349.188 167.714,349.430 166.384,348.114 165.570 C 347.626 165.269,347.002 165.884,346.727 166.936 Z"/><path d="M118.667 166.667 C 117.331 168.002,118.053 170.702,120.314 172.826 C 123.637 175.947,126.000 175.668,126.000 172.155 C 126.000 167.983,121.053 164.280,118.667 166.667 Z"/><path d="M321.568 173.250 C 321.365 173.938,320.647 178.510,319.972 183.411 C 318.844 191.606,318.434 192.659,314.873 196.522 C 311.147 200.564,310.023 203.000,311.883 203.000 C 312.369 203.000,313.002 202.100,313.290 201.000 C 313.992 198.314,315.757 198.461,316.294 201.250 L 316.728 203.500 316.864 201.250 C 316.956 199.720,317.634 199.000,318.981 199.000 C 321.423 199.000,321.706 197.733,322.495 183.250 C 323.037 173.292,322.683 169.473,321.568 173.250 Z"/><path d="M331.341 180.000 C 330.366 181.650,329.216 183.000,328.784 183.000 C 328.353 183.000,328.000 183.765,328.000 184.700 C 328.000 185.705,328.344 186.011,328.840 185.450 C 330.346 183.746,334.177 177.000,333.638 177.000 C 333.349 177.000,332.316 178.350,331.341 180.000 Z"/><path d="M98.727 181.935 C 98.062 184.479,100.593 188.000,103.088 188.000 C 105.640 188.000,106.559 185.523,105.153 182.436 C 103.766 179.393,99.479 179.059,98.727 181.935 Z"/><path d="M235.750 182.689 C 234.788 182.941,234.000 183.612,234.000 184.180 C 234.000 184.749,234.712 184.941,235.582 184.607 C 236.452 184.273,238.278 184.000,239.641 184.000 C 241.038 184.000,241.848 183.564,241.500 183.000 C 240.869 181.980,238.878 181.872,235.750 182.689 Z"/><path d="M275.000 183.474 C 278.928 185.016,284.544 185.521,282.000 184.103 C 281.175 183.644,278.475 183.005,276.000 182.684 L 271.500 182.100 275.000 183.474 Z"/><path d="M406.513 182.979 C 405.274 184.984,408.009 188.000,411.067 188.000 C 414.448 188.000,415.889 185.776,413.989 183.487 C 412.606 181.820,407.446 181.470,406.513 182.979 Z"/><path d="M203.128 195.636 C 203.941 196.606,204.983 202.205,205.687 209.386 L 206.873 221.500 206.548 210.824 C 206.258 201.284,206.397 200.210,207.862 200.724 C 208.763 201.041,207.949 199.658,206.054 197.650 C 202.585 193.976,200.574 192.592,203.128 195.636 Z"/><path d="M314.647 211.651 C 313.854 221.023,313.828 224.506,314.553 223.780 C 315.243 223.090,316.414 204.000,315.766 204.000 C 315.506 204.000,315.002 207.443,314.647 211.651 Z"/><path d="M393.000 204.800 C 393.000 206.349,395.425 208.000,397.700 208.000 C 400.782 208.000,400.623 206.187,397.435 204.975 C 394.319 203.791,393.000 203.739,393.000 204.800 Z"/><path d="M329.028 207.471 C 327.102 209.520,326.923 210.202,327.976 211.471 C 329.747 213.605,333.623 213.377,336.000 211.000 C 338.405 208.595,338.573 206.434,336.418 205.607 C 333.451 204.468,331.350 204.998,329.028 207.471 Z"/><path d="M153.667 206.667 C 152.302 208.031,153.069 209.129,155.172 208.820 C 157.920 208.415,158.843 206.000,156.250 206.000 C 155.196 206.000,154.033 206.300,153.667 206.667 Z"/><path d="M420.160 209.240 C 418.435 210.965,418.750 212.000,421.000 212.000 C 422.100 212.000,423.000 211.352,423.000 210.559 C 423.000 208.540,421.539 207.861,420.160 209.240 Z"/><path d="M18.336 214.567 C 17.502 216.739,19.618 218.782,21.133 217.267 C 22.413 215.987,21.620 213.000,20.000 213.000 C 19.415 213.000,18.667 213.705,18.336 214.567 Z"/><path d="M325.704 223.104 C 326.495 223.895,327.330 223.903,328.654 223.134 C 330.272 222.193,330.136 222.057,327.550 222.030 C 325.399 222.008,324.899 222.299,325.704 223.104 Z"/><path d="M352.048 223.949 C 351.249 224.455,350.226 224.640,349.775 224.361 C 348.563 223.612,324.974 231.930,312.500 237.505 C 310.850 238.242,308.150 239.159,306.500 239.542 C 301.711 240.653,278.280 248.870,269.030 252.682 L 260.559 256.173 247.030 253.602 C 239.588 252.188,229.000 250.340,223.500 249.494 C 218.000 248.648,212.263 247.705,210.750 247.399 L 208.000 246.841 208.000 237.921 C 208.000 232.640,207.592 229.000,207.000 229.000 C 206.417 229.000,206.000 232.333,206.000 237.000 C 206.000 243.953,205.771 245.000,204.250 244.999 C 202.098 244.998,187.942 242.082,186.869 241.419 C 185.734 240.717,165.524 237.259,158.372 236.542 L 152.245 235.928 153.048 240.228 C 153.490 242.593,154.742 246.996,155.830 250.014 C 160.849 263.931,165.130 280.516,165.371 286.977 C 165.473 289.737,165.088 290.518,163.500 290.766 C 158.383 291.564,157.359 292.123,155.625 295.058 C 154.381 297.164,153.947 299.285,154.307 301.503 C 154.756 304.274,154.498 304.898,152.707 305.366 C 151.533 305.673,150.242 305.392,149.840 304.740 C 149.325 303.907,148.912 304.067,148.447 305.278 C 147.634 307.397,146.000 307.545,146.000 305.500 C 146.000 304.675,145.213 303.954,144.250 303.898 C 143.288 303.842,143.963 303.327,145.750 302.753 C 149.223 301.639,149.459 301.273,148.094 299.118 C 147.406 298.032,147.074 298.193,146.542 299.868 C 145.723 302.448,140.000 303.001,140.000 300.500 C 140.000 299.675,139.592 299.000,139.094 299.000 C 138.595 299.000,138.404 299.827,138.668 300.838 C 139.240 303.025,136.112 303.168,133.583 301.069 C 132.254 299.966,132.000 300.005,132.000 301.310 C 132.000 302.165,132.788 303.115,133.750 303.421 C 134.805 303.755,135.500 304.974,135.500 306.489 C 135.500 308.504,135.062 308.943,133.288 308.705 C 132.071 308.542,130.800 308.133,130.463 307.796 C 130.125 307.459,128.469 307.579,126.782 308.062 C 123.642 308.963,121.581 308.487,122.460 307.065 C 123.190 305.883,119.301 302.696,118.063 303.461 C 116.383 304.499,116.769 307.303,118.500 306.638 C 120.762 305.771,120.345 308.768,118.000 310.232 C 116.900 310.919,116.000 311.823,116.000 312.241 C 116.000 312.658,129.908 313.000,146.906 313.000 L 177.812 313.000 181.422 307.976 C 185.459 302.356,190.194 299.009,194.113 299.004 C 197.261 298.999,206.000 307.787,206.000 310.957 C 206.000 312.996,206.140 313.000,281.333 313.000 C 322.767 313.000,356.918 312.749,357.225 312.442 C 357.946 311.720,355.798 306.000,354.806 306.000 C 354.390 306.000,354.317 304.666,354.643 303.035 C 355.708 297.711,354.224 293.167,350.852 291.423 C 349.169 290.553,346.602 289.698,345.146 289.524 C 343.691 289.349,342.570 288.822,342.655 288.353 C 342.741 287.884,344.184 281.200,345.863 273.500 C 347.541 265.800,349.566 255.450,350.363 250.500 C 351.159 245.550,352.255 239.700,352.798 237.500 C 354.303 231.403,355.165 222.998,354.284 223.015 C 353.853 223.024,352.846 223.444,352.048 223.949 M159.000 248.059 C 159.000 248.577,158.550 249.000,158.000 249.000 C 157.450 249.000,157.000 248.298,157.000 247.441 C 157.000 246.584,157.450 246.160,158.000 246.500 C 158.550 246.840,159.000 247.541,159.000 248.059 M180.800 252.200 C 182.705 254.105,182.237 255.875,179.984 255.286 C 177.603 254.663,176.641 253.390,177.500 252.000 C 178.318 250.676,179.338 250.738,180.800 252.200 M172.000 254.500 C 172.000 257.448,170.485 257.775,169.070 255.131 C 167.989 253.111,168.555 252.000,170.667 252.000 C 171.422 252.000,172.000 253.083,172.000 254.500 M166.210 265.810 C 167.111 266.711,167.119 267.281,166.242 268.158 C 164.900 269.500,162.000 267.660,162.000 265.466 C 162.000 263.929,164.536 264.136,166.210 265.810 M156.000 307.000 C 156.000 307.550,155.523 308.000,154.941 308.000 C 154.359 308.000,154.160 307.550,154.500 307.000 C 154.840 306.450,155.316 306.000,155.559 306.000 C 155.802 306.000,156.000 306.450,156.000 307.000 Z"/><path d="M410.000 245.059 C 410.000 245.641,410.450 245.840,411.000 245.500 C 411.550 245.160,412.000 244.684,412.000 244.441 C 412.000 244.198,411.550 244.000,411.000 244.000 C 410.450 244.000,410.000 244.477,410.000 245.059 Z"/><path d="M407.480 260.032 C 407.092 260.660,407.245 261.645,407.820 262.220 C 409.164 263.564,412.297 262.392,411.750 260.749 C 411.194 259.078,408.364 258.602,407.480 260.032 Z"/><path d="M100.200 266.200 C 98.497 267.903,98.684 272.000,100.465 272.000 C 102.282 272.000,104.345 268.341,103.608 266.422 C 102.942 264.684,101.791 264.609,100.200 266.200 Z"/><path d="M393.571 272.571 C 391.629 274.514,391.587 276.053,393.410 278.546 C 394.793 280.437,394.858 280.438,396.910 278.582 C 399.253 276.461,399.597 273.997,397.800 272.200 C 396.219 270.619,395.457 270.685,393.571 272.571 Z"/><path d="M478.345 273.543 C 478.019 274.392,478.014 275.347,478.333 275.667 C 479.342 276.676,482.000 275.128,482.000 273.531 C 482.000 271.535,479.112 271.545,478.345 273.543 Z"/><path d="M85.000 275.389 C 85.000 277.848,88.559 281.383,90.344 280.698 C 92.538 279.856,92.434 278.434,90.000 276.000 C 87.691 273.691,85.000 273.363,85.000 275.389 Z"/><path d="M37.250 281.667 C 34.943 282.589,35.900 285.000,38.573 285.000 C 40.438 285.000,41.058 284.541,40.823 283.333 C 40.468 281.500,39.175 280.897,37.250 281.667 Z"/><path d="M120.500 291.000 C 120.160 291.550,120.332 292.000,120.882 292.000 C 121.432 292.000,122.160 291.550,122.500 291.000 C 122.840 290.450,122.668 290.000,122.118 290.000 C 121.568 290.000,120.840 290.450,120.500 291.000 Z"/><path d="M134.559 296.532 C 132.652 297.974,132.655 298.000,134.702 298.000 C 135.848 298.000,137.045 297.325,137.362 296.500 C 138.083 294.621,137.070 294.632,134.559 296.532 Z"/><path d="M437.226 297.179 C 437.774 298.823,440.760 300.573,441.595 299.739 C 442.546 298.787,440.085 296.000,438.294 296.000 C 437.491 296.000,437.010 296.530,437.226 297.179 Z"/></g></svg>